<mxfile host="65bd71144e">
    <diagram id="bM9gmAkrF1ddQNRm0-j1" name="Page-1">
        <mxGraphModel dx="634" dy="321" grid="1" gridSize="10" guides="1" tooltips="1" connect="1" arrows="1" fold="1" page="1" pageScale="1" pageWidth="850" pageHeight="1100" math="0" shadow="0">
            <root>
                <mxCell id="0"/>
                <mxCell id="1" parent="0"/>
                <mxCell id="68" value="clear" style="edgeStyle=orthogonalEdgeStyle;html=1;exitX=0.75;exitY=0;exitDx=0;exitDy=0;entryX=0.75;entryY=1;entryDx=0;entryDy=0;" parent="1" source="2" target="62" edge="1">
                    <mxGeometry relative="1" as="geometry"/>
                </mxCell>
                <mxCell id="69" value="load" style="edgeStyle=orthogonalEdgeStyle;html=1;exitX=1;exitY=0.125;exitDx=0;exitDy=0;entryX=0.25;entryY=1;entryDx=0;entryDy=0;exitPerimeter=0;" parent="1" source="2" target="4" edge="1">
                    <mxGeometry x="0.4783" relative="1" as="geometry">
                        <mxPoint as="offset"/>
                    </mxGeometry>
                </mxCell>
                <mxCell id="87" style="edgeStyle=orthogonalEdgeStyle;html=1;fillColor=#f0a30a;strokeColor=#BD7000;entryX=0.5;entryY=1;entryDx=0;entryDy=0;" parent="1" target="15" edge="1">
                    <mxGeometry relative="1" as="geometry">
                        <mxPoint x="180" y="400" as="sourcePoint"/>
                        <Array as="points">
                            <mxPoint x="160" y="400"/>
                            <mxPoint x="160" y="510"/>
                            <mxPoint x="705" y="510"/>
                        </Array>
                        <mxPoint x="470" y="510" as="targetPoint"/>
                    </mxGeometry>
                </mxCell>
                <mxCell id="2" value="FSM" style="rounded=0;whiteSpace=wrap;html=1;" parent="1" vertex="1">
                    <mxGeometry x="200" y="320" width="140" height="160" as="geometry"/>
                </mxCell>
                <mxCell id="95" style="edgeStyle=none;html=1;exitX=1;exitY=0.25;exitDx=0;exitDy=0;entryX=0.25;entryY=1;entryDx=0;entryDy=0;" parent="1" source="4" target="13" edge="1">
                    <mxGeometry relative="1" as="geometry"/>
                </mxCell>
                <mxCell id="4" value="PISO" style="rounded=0;whiteSpace=wrap;html=1;" parent="1" vertex="1">
                    <mxGeometry x="410" y="140" width="80" height="60" as="geometry"/>
                </mxCell>
                <mxCell id="16" style="edgeStyle=none;html=1;entryX=0;entryY=0.5;entryDx=0;entryDy=0;" parent="1" source="13" target="15" edge="1">
                    <mxGeometry relative="1" as="geometry"/>
                </mxCell>
                <mxCell id="18" style="edgeStyle=none;html=1;entryX=0.75;entryY=1;entryDx=0;entryDy=0;" parent="1" target="13" edge="1">
                    <mxGeometry relative="1" as="geometry">
                        <mxPoint x="540" y="222" as="sourcePoint"/>
                    </mxGeometry>
                </mxCell>
                <mxCell id="19" value="1'b1" style="edgeLabel;html=1;align=center;verticalAlign=middle;resizable=0;points=[];" parent="18" vertex="1" connectable="0">
                    <mxGeometry x="-0.4994" y="-2" relative="1" as="geometry">
                        <mxPoint x="-15" y="-4" as="offset"/>
                    </mxGeometry>
                </mxCell>
                <mxCell id="84" style="edgeStyle=orthogonalEdgeStyle;html=1;exitX=1.012;exitY=0.34;exitDx=0;exitDy=0;exitPerimeter=0;jumpStyle=arc;" parent="1" source="2" target="13" edge="1">
                    <mxGeometry relative="1" as="geometry">
                        <Array as="points">
                            <mxPoint x="600" y="374"/>
                        </Array>
                    </mxGeometry>
                </mxCell>
                <mxCell id="85" value="tx_sel" style="edgeLabel;html=1;align=center;verticalAlign=middle;resizable=0;points=[];" parent="84" vertex="1" connectable="0">
                    <mxGeometry x="-0.6883" y="1" relative="1" as="geometry">
                        <mxPoint as="offset"/>
                    </mxGeometry>
                </mxCell>
                <mxCell id="13" value="MUX" style="shape=trapezoid;perimeter=trapezoidPerimeter;whiteSpace=wrap;html=1;fixedSize=1;rotation=90;" parent="1" vertex="1">
                    <mxGeometry x="535" y="167.5" width="132.5" height="42.5" as="geometry"/>
                </mxCell>
                <mxCell id="60" value="o_tx" style="edgeStyle=orthogonalEdgeStyle;html=1;" parent="1" source="15" edge="1">
                    <mxGeometry x="0.25" relative="1" as="geometry">
                        <mxPoint x="800" y="189" as="targetPoint"/>
                        <mxPoint as="offset"/>
                    </mxGeometry>
                </mxCell>
                <mxCell id="89" style="edgeStyle=orthogonalEdgeStyle;html=1;entryX=0.5;entryY=1;entryDx=0;entryDy=0;fillColor=#f0a30a;strokeColor=#BD7000;" parent="1" source="15" target="4" edge="1">
                    <mxGeometry relative="1" as="geometry">
                        <Array as="points">
                            <mxPoint x="705" y="310"/>
                            <mxPoint x="450" y="310"/>
                        </Array>
                    </mxGeometry>
                </mxCell>
                <mxCell id="15" value="FF" style="rounded=0;whiteSpace=wrap;html=1;" parent="1" vertex="1">
                    <mxGeometry x="690" y="148.75" width="30" height="80" as="geometry"/>
                </mxCell>
                <mxCell id="73" style="edgeStyle=orthogonalEdgeStyle;html=1;entryX=0;entryY=0.25;entryDx=0;entryDy=0;" parent="1" source="33" target="4" edge="1">
                    <mxGeometry relative="1" as="geometry"/>
                </mxCell>
                <mxCell id="74" value="i_data" style="edgeStyle=orthogonalEdgeStyle;html=1;" parent="1" target="33" edge="1">
                    <mxGeometry x="-0.4" relative="1" as="geometry">
                        <mxPoint x="80" y="130" as="sourcePoint"/>
                        <mxPoint as="offset"/>
                    </mxGeometry>
                </mxCell>
                <mxCell id="75" style="edgeStyle=orthogonalEdgeStyle;html=1;entryX=0;entryY=0.75;entryDx=0;entryDy=0;" parent="1" target="4" edge="1">
                    <mxGeometry relative="1" as="geometry">
                        <mxPoint x="230" y="130" as="sourcePoint"/>
                        <Array as="points">
                            <mxPoint x="250" y="130"/>
                            <mxPoint x="250" y="185"/>
                        </Array>
                    </mxGeometry>
                </mxCell>
                <mxCell id="33" value="PARITY&lt;br&gt;GENERATOR" style="rounded=0;whiteSpace=wrap;html=1;" parent="1" vertex="1">
                    <mxGeometry x="280" y="100" width="80" height="60" as="geometry"/>
                </mxCell>
                <mxCell id="63" value="i_clk" style="edgeStyle=none;html=1;fillColor=#f0a30a;strokeColor=#BD7000;" parent="1" target="62" edge="1">
                    <mxGeometry x="-0.5" relative="1" as="geometry">
                        <mxPoint x="80" y="230" as="sourcePoint"/>
                        <mxPoint as="offset"/>
                    </mxGeometry>
                </mxCell>
                <mxCell id="86" style="edgeStyle=orthogonalEdgeStyle;html=1;entryX=0;entryY=0.5;entryDx=0;entryDy=0;fillColor=#f0a30a;strokeColor=#BD7000;" parent="1" target="2" edge="1">
                    <mxGeometry relative="1" as="geometry">
                        <mxPoint x="160" y="230" as="sourcePoint"/>
                        <Array as="points">
                            <mxPoint x="160" y="400"/>
                        </Array>
                    </mxGeometry>
                </mxCell>
                <mxCell id="66" value="wait-&lt;br&gt;flag" style="edgeStyle=orthogonalEdgeStyle;html=1;exitX=0.25;exitY=1;exitDx=0;exitDy=0;entryX=0.25;entryY=0;entryDx=0;entryDy=0;" parent="1" source="62" target="2" edge="1">
                    <mxGeometry relative="1" as="geometry">
                        <mxPoint as="offset"/>
                    </mxGeometry>
                </mxCell>
                <mxCell id="91" value="baud-&lt;br&gt;flag" style="edgeStyle=none;html=1;entryX=0.5;entryY=0;entryDx=0;entryDy=0;" parent="1" source="62" target="2" edge="1">
                    <mxGeometry relative="1" as="geometry"/>
                </mxCell>
                <mxCell id="62" value="BAUD -&lt;br&gt;COUNTER" style="rounded=0;whiteSpace=wrap;html=1;" parent="1" vertex="1">
                    <mxGeometry x="200" y="200" width="140" height="60" as="geometry"/>
                </mxCell>
                <mxCell id="76" value="i_tx_en" style="edgeStyle=orthogonalEdgeStyle;html=1;exitX=0;exitY=0.25;exitDx=0;exitDy=0;entryX=0;entryY=0.25;entryDx=0;entryDy=0;jumpStyle=arc;" parent="1" target="2" edge="1">
                    <mxGeometry x="-0.1667" relative="1" as="geometry">
                        <mxPoint x="80" y="360" as="sourcePoint"/>
                        <mxPoint as="offset"/>
                    </mxGeometry>
                </mxCell>
                <mxCell id="80" style="edgeStyle=orthogonalEdgeStyle;html=1;jumpStyle=arc;" parent="1" source="2" edge="1">
                    <mxGeometry relative="1" as="geometry">
                        <mxPoint x="800" y="400" as="targetPoint"/>
                    </mxGeometry>
                </mxCell>
                <mxCell id="81" value="o_busy" style="edgeLabel;html=1;align=center;verticalAlign=middle;resizable=0;points=[];" parent="80" vertex="1" connectable="0">
                    <mxGeometry x="0.3979" y="-1" relative="1" as="geometry">
                        <mxPoint x="117" y="-1" as="offset"/>
                    </mxGeometry>
                </mxCell>
                <mxCell id="96" style="edgeStyle=orthogonalEdgeStyle;html=1;exitX=1;exitY=0.75;exitDx=0;exitDy=0;entryX=0.009;entryY=0.775;entryDx=0;entryDy=0;entryPerimeter=0;jumpStyle=arc;" parent="1" source="4" target="2" edge="1">
                    <mxGeometry relative="1" as="geometry">
                        <Array as="points">
                            <mxPoint x="510" y="185"/>
                            <mxPoint x="510" y="500"/>
                            <mxPoint x="170" y="500"/>
                            <mxPoint x="170" y="444"/>
                        </Array>
                    </mxGeometry>
                </mxCell>
                <mxCell id="97" value="empty" style="edgeLabel;html=1;align=center;verticalAlign=middle;resizable=0;points=[];" parent="96" vertex="1" connectable="0">
                    <mxGeometry x="-0.7453" relative="1" as="geometry">
                        <mxPoint y="-2" as="offset"/>
                    </mxGeometry>
                </mxCell>
                <mxCell id="70" style="edgeStyle=orthogonalEdgeStyle;html=1;exitX=1;exitY=0.25;exitDx=0;exitDy=0;entryX=0.75;entryY=1;entryDx=0;entryDy=0;jumpStyle=arc;" parent="1" source="2" target="4" edge="1">
                    <mxGeometry relative="1" as="geometry"/>
                </mxCell>
                <mxCell id="71" value="shift" style="edgeLabel;html=1;align=center;verticalAlign=middle;resizable=0;points=[];" parent="70" vertex="1" connectable="0">
                    <mxGeometry x="0.6756" y="2" relative="1" as="geometry">
                        <mxPoint y="13" as="offset"/>
                    </mxGeometry>
                </mxCell>
            </root>
        </mxGraphModel>
    </diagram>
</mxfile>